<svg width="178" height="36" fill="none" xmlns="http://www.w3.org/2000/svg"><path stroke="#0063A8" d="M112 17.5h66M0 17.5h66"/><circle cx="89" cy="18" r="16" stroke="#0063A8" stroke-width="2.764" stroke-dasharray="0.98 8.39"/><mask id="a" fill="#fff"><path fill-rule="evenodd" clip-rule="evenodd" d="m88.014 6.812-6.906 13.155a1 1 0 0 0 .885 1.465h3.684l-.18 6.513c-.059 2.118 2.785 2.861 3.77.985l6.905-13.155a1 1 0 0 0-.885-1.465h-3.683l.18-6.513c.058-2.118-2.785-2.86-3.77-.985z"/></mask><path fill-rule="evenodd" clip-rule="evenodd" d="m88.014 6.812-6.906 13.155a1 1 0 0 0 .885 1.465h3.684l-.18 6.513c-.059 2.118 2.785 2.861 3.77.985l6.905-13.155a1 1 0 0 0-.885-1.465h-3.683l.18-6.513c.058-2.118-2.785-2.86-3.77-.985z" fill="#FFDF4E"/><path d="m81.108 19.967 1.229.645-1.229-.645zm6.906-13.155 1.229.645-1.23-.645zm-2.337 14.62 1.387.038.04-1.426h-1.427v1.388zm-.18 6.513-1.388-.038 1.388.038zm3.77.985-1.23-.645 1.23.645zm6.905-13.155 1.23.645-1.23-.645zm-4.568-1.465-1.387-.038-.04 1.426h1.427V14.31zm.18-6.513 1.387.038-1.387-.038zm-9.447 12.815 6.906-13.155-2.458-1.29-6.906 13.155 2.458 1.29zm-.344-.568c.292 0 .48.31.344.568l-2.458-1.29c-.834 1.59.319 3.498 2.114 3.498v-2.776zm3.684 0h-3.684v2.776h3.684v-2.776zm1.207 7.94.18-6.514-2.775-.076-.18 6.513 2.775.076zm1.154.3c-.302.575-1.172.348-1.154-.3l-2.775-.077c-.099 3.588 4.718 4.846 6.386 1.668l-2.457-1.29zm6.906-13.154-6.906 13.155 2.457 1.29 6.906-13.155-2.457-1.29zm.343.568a.388.388 0 0 1-.344-.568l2.458 1.29c.835-1.59-.318-3.498-2.114-3.498v2.776zm-3.683 0h3.683v-2.776h-3.683v2.776zm-1.207-7.94-.18 6.514 2.774.077.18-6.514-2.774-.076zm-1.154-.3c.301-.575 1.172-.348 1.154.3l2.774.077c.1-3.588-4.718-4.846-6.386-1.668l2.458 1.29z" fill="#0063A8" mask="url(#a)"/></svg>